# xmcd CD database file
#
# Track frame offsets:
#	150
#	19262
#	37052
#	53040
#	69637
#	85742
#	110482
#	122257
#	136965
#	147922
#
# Disc length: 2210 seconds
#
# Revision: 3
# Processed by: cddbd v1.4PL0 Copyright (c) Steve Scherf et al.
# Submitted via: CDex 1.50beta8
#
DISCID=8708a00a
DTITLE=Michael Salgado - En Concierto
DYEAR=1995
DGENRE=Latin
TTITLE0=Si Qusieras
TTITLE1=Cruz De Madera
TTITLE2=Sin Ella
TTITLE3=Amigo
TTITLE4=El Dia En Que Te Fuiste
TTITLE5=Recordando A Los Relampagos
TTITLE6=Mi Lindro Padre
TTITLE7=Muneco
TTITLE8=Si Tu Te Vas
TTITLE9=El Gallo Desplumado
EXTD=YEAR: 1995
EXTT0=
EXTT1=
EXTT2=
EXTT3=
EXTT4=
EXTT5=
EXTT6=
EXTT7=
EXTT8=
EXTT9=
PLAYORDER=
